# xmcd
#
# Track frame offsets:
#	150
#	4580
#	22737
#	36873
#	53839
#	68848
#	84399
#	95089
#	105970
#	122649
#	134504
#	141778
#	159887
#	166232
#
# Disc length: 2424 seconds
#
# Revision: 1
# Processed by: cddbd v1.5.2PL0 Copyright (c) Steve Scherf et al.
# Submitted via: audiograbber 1.83.01
#
DISCID=a509760e
DTITLE=Jean-Marc Robin - DWO
DYEAR=2014
DGENRE=Blues
TTITLE0=Intro - Route 55
TTITLE1=LAO
TTITLE2=Ding Ding Ding Dong
TTITLE3=Maintenant
TTITLE4=Avenue des Bruères
TTITLE5=Pétrou
TTITLE6=Hep !
TTITLE7=9 Rue Lauer
TTITLE8=Chocaré
TTITLE9=Sakouyé La
TTITLE10=Après Coup
TTITLE11=C´est Pas Là
TTITLE12=Outro - Route 55
TTITLE13=Bonus Track - Titcheké
EXTD=
EXTT0=
EXTT1=
EXTT2=
EXTT3=
EXTT4=
EXTT5=
EXTT6=
EXTT7=
EXTT8=
EXTT9=
EXTT10=
EXTT11=
EXTT12=
EXTT13=
PLAYORDER=
